<svg width="18" height="18" viewBox="0 0 18 18" fill="none" xmlns="http://www.w3.org/2000/svg">
<path d="M9.4045 6.44308L9.42137 1.81918L10.7208 3.13548C10.7714 3.1861 10.8375 3.21282 10.9191 3.21564C11.0006 3.21845 11.0667 3.19454 11.1174 3.14391L11.2608 3.00047C11.3114 2.9386 11.3396 2.87391 11.3452 2.8064C11.3508 2.7389 11.3311 2.67702 11.2861 2.62077L9.33699 0.671648L9.32856 0.671648L9.32012 0.671648L9.23574 0.553519C9.17949 0.497267 9.11761 0.469141 9.05011 0.469141C8.97136 0.469141 8.90667 0.494454 8.85604 0.545081L8.76323 0.654772L8.75479 0.66321L6.8141 2.58702C6.78598 2.61515 6.76488 2.64749 6.75082 2.68406C6.73676 2.72062 6.72972 2.75578 6.72972 2.78953C6.72972 2.82328 6.73676 2.85844 6.75082 2.895C6.76488 2.93156 6.78598 2.96391 6.8141 2.99203L6.94911 3.12704C7.01661 3.18329 7.09114 3.2072 7.17271 3.19876C7.25427 3.19032 7.32318 3.15798 7.37943 3.10173L8.65354 1.82762L8.6451 6.44308C8.63947 6.54996 8.67463 6.64137 8.75057 6.71731C8.82651 6.79325 8.91792 6.82841 9.0248 6.82278C9.22168 6.82841 9.34543 6.73278 9.39606 6.5359C9.39606 6.50215 9.39887 6.47121 9.4045 6.44308ZM8.65354 11.5479L8.63666 16.1718L7.33724 14.8555C7.28662 14.8049 7.22052 14.7782 7.13896 14.7754C7.05739 14.7726 6.9913 14.7965 6.94067 14.8471L6.78879 14.999C6.77191 15.0271 6.75504 15.058 6.73816 15.0918C6.72129 15.1255 6.71004 15.1593 6.70441 15.193C6.69879 15.2268 6.70301 15.2591 6.71707 15.2901C6.73113 15.321 6.7466 15.3506 6.76348 15.3787L8.7126 17.3278L8.72104 17.3278L8.72948 17.3278L8.81385 17.4459C8.84198 17.4741 8.87151 17.4952 8.90245 17.5092C8.93339 17.5233 8.96573 17.5303 8.99949 17.5303C9.07824 17.5303 9.14293 17.505 9.19355 17.4544L9.28637 17.3447L9.29481 17.3362L11.2439 15.404C11.3002 15.3477 11.3283 15.2802 11.3283 15.2015C11.3283 15.1227 11.3002 15.0552 11.2439 14.999L11.1089 14.864C11.0414 14.8077 10.9669 14.7838 10.8853 14.7923C10.8038 14.8007 10.7349 14.833 10.6786 14.8893L9.4045 16.1634L9.41294 11.5479C9.41294 11.4917 9.4045 11.4411 9.38762 11.3961C9.37075 11.3511 9.34403 11.3103 9.30746 11.2737C9.2709 11.2371 9.22871 11.209 9.1809 11.1893C9.13308 11.1696 9.08386 11.1626 9.03324 11.1682C8.96573 11.1682 8.90245 11.1837 8.84339 11.2146C8.78432 11.2456 8.73791 11.292 8.70416 11.3539C8.67041 11.4157 8.65354 11.4804 8.65354 11.5479ZM17.3529 8.68753L15.4038 6.73841C15.3475 6.6934 15.2856 6.67371 15.2181 6.67934C15.1506 6.68497 15.0859 6.71309 15.0241 6.76372L14.8806 6.90716C14.83 6.95779 14.8047 7.02248 14.8047 7.10123C14.8047 7.17998 14.8328 7.24748 14.889 7.30374L16.2053 8.60315L11.5814 8.62003C11.5139 8.62003 11.4493 8.6369 11.3874 8.67065C11.3255 8.7044 11.2791 8.75081 11.2482 8.80988C11.2172 8.86894 11.2017 8.93222 11.2017 8.99973C11.1961 9.10661 11.2313 9.19801 11.3072 9.27395C11.3832 9.34989 11.4746 9.38505 11.5814 9.37943L16.1969 9.37099L14.9228 10.6451C14.8834 10.6845 14.8553 10.7267 14.8384 10.7717C14.8215 10.8167 14.8187 10.8673 14.83 10.9235C14.8412 10.9798 14.8637 11.0304 14.8975 11.0754L15.0325 11.2104C15.0719 11.2498 15.1169 11.2751 15.1675 11.2864C15.2181 11.2976 15.2659 11.2976 15.3109 11.2864C15.3559 11.2751 15.3981 11.2498 15.4375 11.2104L17.3613 9.26974L17.3698 9.2613L17.4794 9.16848C17.5301 9.11786 17.5554 9.05317 17.5554 8.97441C17.5554 8.90691 17.5273 8.84503 17.471 8.78878L17.3529 8.70441L17.3613 8.69597L17.3529 8.68753ZM1.86113 8.62003L3.13523 7.34592C3.19149 7.28967 3.22383 7.22076 3.23227 7.1392C3.24071 7.05763 3.2168 6.9831 3.16055 6.9156L3.02554 6.78059C2.96929 6.72434 2.90179 6.69622 2.82304 6.69622C2.74428 6.69621 2.67678 6.72434 2.62053 6.78059L0.688281 8.72972L0.679843 8.73816L0.570152 8.83097C0.519526 8.8816 0.494212 8.94629 0.494212 9.02504C0.494212 9.05879 0.501244 9.09114 0.515307 9.12207C0.52937 9.15301 0.550464 9.18254 0.57859 9.21067L0.696719 9.29505L0.6925 9.29927L0.696719 9.31192L2.64584 11.261C2.7021 11.306 2.76397 11.3257 2.83147 11.3201C2.89898 11.3145 2.96367 11.2864 3.02554 11.2357L3.17742 11.0839C3.21117 11.0501 3.23368 11.0079 3.24493 10.9573C3.25618 10.9067 3.25477 10.8574 3.24071 10.8096C3.22664 10.7618 3.20274 10.721 3.16899 10.6873L1.85269 9.38786L6.47659 9.37099C6.58347 9.37661 6.67488 9.34146 6.75082 9.26552C6.82676 9.18958 6.86473 9.09817 6.86473 8.99129C6.86473 8.88441 6.82676 8.793 6.75082 8.71706C6.67488 8.64112 6.58347 8.60596 6.47659 8.61159L1.86113 8.62003Z" fill="white"/>
</svg>
