<svg width="18" height="18" viewBox="0 0 18 18" fill="none" xmlns="http://www.w3.org/2000/svg">
<path d="M10.1782 8.99984L12.5357 6.64317C12.6131 6.56575 12.6745 6.47383 12.7164 6.37267C12.7583 6.27151 12.7799 6.16308 12.7799 6.05359C12.7799 5.94409 12.7583 5.83567 12.7164 5.73451C12.6745 5.63335 12.6131 5.54143 12.5357 5.464C12.4582 5.38658 12.3663 5.32516 12.2652 5.28326C12.164 5.24136 12.0556 5.21979 11.9461 5.21979C11.8366 5.21979 11.7282 5.24136 11.627 5.28326C11.5258 5.32516 11.4339 5.38658 11.3565 5.464L8.99984 7.8215L6.64317 5.464C6.4868 5.30764 6.27472 5.21979 6.05359 5.21979C5.83245 5.21979 5.62037 5.30764 5.464 5.464C5.30764 5.62037 5.21979 5.83245 5.21979 6.05359C5.21979 6.16308 5.24136 6.27151 5.28326 6.37267C5.32516 6.47383 5.38658 6.56575 5.464 6.64317L7.8215 8.99984L5.464 11.3565C5.30764 11.5129 5.21979 11.725 5.21979 11.9461C5.21979 12.1672 5.30764 12.3793 5.464 12.5357C5.62037 12.692 5.83245 12.7799 6.05359 12.7799C6.27472 12.7799 6.4868 12.692 6.64317 12.5357L8.99984 10.1782L11.3565 12.5357C11.5129 12.692 11.725 12.7799 11.9461 12.7799C12.1672 12.7799 12.3793 12.692 12.5357 12.5357C12.692 12.3793 12.7799 12.1672 12.7799 11.9461C12.7799 11.725 12.692 11.5129 12.5357 11.3565L10.1782 8.99984ZM8.99984 17.3332C4.39734 17.3332 0.666504 13.6023 0.666504 8.99984C0.666504 4.39734 4.39734 0.666504 8.99984 0.666504C13.6023 0.666504 17.3332 4.39734 17.3332 8.99984C17.3332 13.6023 13.6023 17.3332 8.99984 17.3332Z" fill="#ADAFBB"/>
</svg>
