<svg xmlns="http://www.w3.org/2000/svg" width="8" height="8" viewBox="0 0 8 8" fill="none">
    <path d="M7.42857 4.57143H4.57143V7.42857C4.57143 7.74286 4.31429 8 4 8C3.68571 8 3.42857 7.74286 3.42857 7.42857V4.57143H0.571429C0.257143 4.57143 0 4.31429 0 4C0 3.68571 0.257143 3.42857 0.571429 3.42857H3.42857V0.571429C3.42857 0.257143 3.68571 0 4 0C4.31429 0 4.57143 0.257143 4.57143 0.571429V3.42857H7.42857C7.74286 3.42857 8 3.68571 8 4C8 4.31429 7.74286 4.57143 7.42857 4.57143Z" fill="white"/>
</svg>