<svg width="24" height="24" viewBox="0 0 24 24" fill="none" xmlns="http://www.w3.org/2000/svg">
<g id="icons">
<path id="Vector" d="M10.3381 11.1758C10.0155 10.7019 9.72532 10.2715 9.33409 9.92116C7.68849 8.44625 5.26692 8.92283 4.33519 10.9573C3.40346 12.9917 5.05925 15.3414 7.32322 15.2419C8.55533 15.1875 9.45554 14.5266 10.1342 13.5679C10.9241 12.4617 11.5248 11.2357 12.1182 10.018C13.1482 7.92266 15.2656 6.82386 17.4267 7.05523C20.3721 7.36957 22.4618 10.2078 21.912 13.1014C21.4141 15.7249 18.936 17.5741 16.2892 17.2616C14.5277 17.0533 13.1686 16.1748 12.2934 14.6114C12.0894 14.2426 12.0848 14.2426 11.8456 14.5957C11.1512 15.618 10.301 16.4476 9.1292 16.938C7.07012 17.7999 4.46035 17.0938 3.10308 15.3239C2.27797 14.2353 1.89693 13.0268 2.02394 11.6855C2.17135 10.135 2.92693 8.90716 4.20169 7.98903C5.62107 6.96766 7.16839 6.75011 8.8112 7.27739C9.8477 7.61385 10.7423 8.18354 11.3635 9.12102C11.4293 9.21966 11.4859 9.27773 11.4126 9.39757C11.0557 9.97002 10.7145 10.5526 10.3381 11.1758ZM16.8278 15.2317C18.5476 15.2317 19.954 13.8675 19.9428 12.1898C19.9317 10.4494 18.6189 9.07954 16.7777 9.0694C15.1034 9.06018 13.7183 10.4807 13.7183 12.1483C13.7144 12.5554 13.7925 12.9593 13.9478 13.336C14.1032 13.7128 14.3327 14.0548 14.6229 14.3421C14.9132 14.6294 15.2582 14.8561 15.6378 15.0089C16.0174 15.1616 16.4239 15.2374 16.8334 15.2317H16.8278Z" fill="#848F9F"/>
</g>
</svg>
